<?xml version="1.0" encoding="UTF-8" ?>
<!DOCTYPE svg PUBLIC "-//W3C//DTD SVG 1.1//EN" "http://www.w3.org/Graphics/SVG/1.1/DTD/svg11.dtd">
<svg width="225pt" height="225pt" viewBox="0 0 225 225" version="1.1" xmlns="http://www.w3.org/2000/svg">
<path fill="#666d87" stroke="#666d87" stroke-width="0.09375" opacity="1.00" d=" M 6.43 37.39 C 9.53 35.36 13.35 35.12 16.95 35.05 C 50.32 35.14 83.69 35.12 117.07 35.06 C 121.10 35.07 125.44 35.65 128.58 38.44 C 131.61 40.75 132.98 44.50 133.44 48.17 C 124.99 49.21 116.48 48.70 108.00 48.77 C 72.00 48.84 36.00 48.67 0.00 48.86 L 0.00 46.29 C 1.38 42.88 3.22 39.40 6.43 37.39 Z" />
<path fill="#5c546a" stroke="#5c546a" stroke-width="0.09375" opacity="1.00" d=" M 108.00 48.77 C 116.48 48.70 124.99 49.21 133.44 48.17 C 133.59 54.49 133.35 60.81 133.39 67.12 C 88.93 67.32 44.46 67.22 0.00 67.17 L 0.00 48.86 C 36.00 48.67 72.00 48.84 108.00 48.77 Z" />
<path fill="#666d87" stroke="#666d87" stroke-width="0.09375" opacity="1.00" d=" M 0.00 67.17 C 44.46 67.22 88.93 67.32 133.39 67.12 C 133.41 76.37 133.54 85.62 133.31 94.87 C 158.55 95.18 183.81 94.97 209.06 94.96 C 212.35 95.04 215.84 95.36 218.63 97.30 C 221.82 99.38 223.70 102.87 225.00 106.36 L 225.00 178.62 C 223.32 182.94 220.56 187.39 215.90 188.87 C 210.75 190.40 205.29 189.71 200.00 189.81 C 172.00 189.78 144.00 189.78 116.00 189.81 C 110.99 189.73 105.85 190.34 100.94 189.03 C 94.96 187.25 91.26 181.04 91.39 174.97 C 91.24 160.00 91.58 145.01 91.28 130.04 C 66.51 130.07 41.74 129.97 16.97 130.11 C 13.34 130.04 9.41 129.96 6.31 127.80 C 3.11 125.69 1.24 122.16 0.00 118.63 L 0.00 67.17 M 16.48 77.60 C 14.67 77.97 13.79 80.10 14.19 81.78 C 14.46 84.50 17.99 84.00 19.96 84.33 C 50.98 84.37 82.00 84.28 113.02 84.38 C 115.22 84.19 118.31 84.68 119.21 82.04 C 120.38 80.14 118.68 77.74 116.63 77.58 C 112.45 76.97 108.21 77.38 104.00 77.33 C 78.67 77.33 53.33 77.34 28.00 77.32 C 24.16 77.38 20.28 76.94 16.48 77.60 M 106.40 112.45 C 105.00 116.80 105.71 121.50 105.53 126.00 C 105.72 129.14 105.14 132.99 107.74 135.33 C 109.95 137.42 113.24 136.90 116.01 137.17 C 118.33 137.10 120.65 137.05 122.98 137.02 C 127.66 136.87 132.62 137.84 137.10 136.18 C 140.64 134.45 140.44 130.13 140.47 126.78 C 140.41 124.46 140.41 122.14 140.44 119.82 C 140.40 116.34 140.84 111.69 137.07 109.91 C 132.60 108.19 127.64 109.13 122.96 109.01 C 120.64 108.97 118.32 108.92 116.00 108.84 C 112.60 109.03 108.19 108.91 106.40 112.45 M 165.08 114.05 C 159.28 120.24 161.31 131.32 168.78 135.22 C 174.41 138.66 181.70 137.04 186.32 132.65 C 191.40 137.71 200.31 138.80 205.84 133.85 C 211.96 129.11 212.61 119.29 207.33 113.68 C 202.08 107.40 191.41 107.55 186.19 113.80 C 181.03 107.25 170.10 107.46 165.08 114.05 M 107.24 155.07 C 104.64 156.45 105.13 161.33 108.30 161.65 C 113.39 162.28 118.61 162.28 123.70 161.65 C 127.23 161.38 127.37 155.23 123.88 154.89 C 118.36 154.45 112.73 154.28 107.24 155.07 M 135.26 155.09 C 132.25 156.72 133.76 161.83 137.13 161.73 C 142.25 162.18 147.51 162.39 152.60 161.51 C 155.83 160.63 155.22 155.14 151.92 154.91 C 146.39 154.42 140.75 154.28 135.26 155.09 M 163.30 155.12 C 160.72 156.38 161.45 161.15 164.36 161.58 C 168.55 162.30 172.83 162.08 177.07 161.98 C 179.06 161.82 181.88 161.94 182.63 159.58 C 183.86 157.18 181.43 154.66 179.00 154.81 C 173.79 154.52 168.47 154.23 163.30 155.12 M 191.31 155.18 C 188.75 156.52 189.57 161.03 192.41 161.57 C 196.58 162.34 200.86 162.06 205.07 161.98 C 206.85 161.73 209.25 162.07 210.31 160.24 C 211.48 158.63 211.25 155.27 208.81 155.13 C 203.05 154.28 197.06 154.29 191.31 155.18 M 107.30 169.17 C 105.47 170.25 105.37 172.87 106.21 174.62 C 108.37 176.39 111.37 176.07 113.98 176.22 C 124.66 176.12 135.34 176.12 146.02 176.22 C 148.39 176.10 150.98 176.32 153.12 175.10 C 154.24 174.06 155.70 172.12 154.30 170.73 C 153.04 168.54 150.19 168.84 148.04 168.66 C 137.03 168.68 126.02 168.80 115.01 168.65 C 112.43 168.67 109.82 168.57 107.30 169.17 M 163.33 169.19 C 160.33 170.89 162.09 175.51 165.12 175.87 C 169.07 176.47 173.08 176.29 177.05 176.20 C 178.94 176.06 181.33 176.19 182.42 174.28 C 184.38 172.02 181.48 168.82 178.98 168.90 C 173.79 168.49 168.48 168.27 163.33 169.19 Z" />
<path fill="#b8bac0" stroke="#b8bac0" stroke-width="0.09375" opacity="1.00" d=" M 16.48 77.60 C 20.28 76.94 24.16 77.38 28.00 77.32 C 53.33 77.34 78.67 77.33 104.00 77.33 C 108.21 77.38 112.45 76.97 116.63 77.58 C 118.68 77.74 120.38 80.14 119.21 82.04 C 118.31 84.68 115.22 84.19 113.02 84.38 C 82.00 84.28 50.98 84.37 19.96 84.33 C 17.99 84.00 14.46 84.50 14.19 81.78 C 13.79 80.10 14.67 77.97 16.48 77.60 Z" />
<path fill="#ffd100" stroke="#ffd100" stroke-width="0.09375" opacity="1.00" d=" M 106.40 112.45 C 108.19 108.91 112.60 109.03 116.00 108.84 C 116.00 118.28 115.99 127.73 116.01 137.17 C 113.24 136.90 109.95 137.42 107.74 135.33 C 105.14 132.99 105.72 129.14 105.53 126.00 C 105.71 121.50 105.00 116.80 106.40 112.45 Z" />
<path fill="#ff9500" stroke="#ff9500" stroke-width="0.09375" opacity="1.00" d=" M 116.00 108.84 C 118.32 108.92 120.64 108.97 122.96 109.01 C 123.02 112.59 123.08 116.17 123.14 119.75 C 128.91 119.62 134.68 119.64 140.44 119.82 C 140.41 122.14 140.41 124.46 140.47 126.78 C 134.66 126.61 128.85 126.62 123.05 126.81 C 123.03 130.21 123.00 133.62 122.98 137.02 C 120.65 137.05 118.33 137.10 116.01 137.17 C 115.99 127.73 116.00 118.28 116.00 108.84 Z" />
<path fill="#ffd100" stroke="#ffd100" stroke-width="0.09375" opacity="1.00" d=" M 122.96 109.01 C 127.64 109.13 132.60 108.19 137.07 109.91 C 140.84 111.69 140.40 116.34 140.44 119.82 C 134.68 119.64 128.91 119.62 123.14 119.75 C 123.08 116.17 123.02 112.59 122.96 109.01 Z" />
<path fill="#ff4f19" stroke="#ff4f19" stroke-width="0.09375" opacity="1.00" d=" M 165.08 114.05 C 170.10 107.46 181.03 107.25 186.19 113.80 C 181.62 119.13 181.94 127.31 186.32 132.65 C 181.70 137.04 174.41 138.66 168.78 135.22 C 161.31 131.32 159.28 120.24 165.08 114.05 Z" />
<path fill="#ffd100" stroke="#ffd100" stroke-width="0.09375" opacity="1.00" d=" M 186.19 113.80 C 191.41 107.55 202.08 107.40 207.33 113.68 C 212.61 119.29 211.96 129.11 205.84 133.85 C 200.31 138.80 191.40 137.71 186.32 132.65 C 181.94 127.31 181.62 119.13 186.19 113.80 Z" />
<path fill="#ffd100" stroke="#ffd100" stroke-width="0.09375" opacity="1.00" d=" M 123.05 126.81 C 128.85 126.62 134.66 126.61 140.47 126.78 C 140.44 130.13 140.64 134.45 137.10 136.18 C 132.62 137.84 127.66 136.87 122.98 137.02 C 123.00 133.62 123.03 130.21 123.05 126.81 Z" />
<path fill="#b8bac0" stroke="#b8bac0" stroke-width="0.09375" opacity="1.00" d=" M 107.24 155.07 C 112.73 154.28 118.36 154.45 123.88 154.89 C 127.37 155.23 127.23 161.38 123.70 161.65 C 118.61 162.28 113.39 162.28 108.30 161.65 C 105.13 161.33 104.64 156.45 107.24 155.07 Z" />
<path fill="#b8bac0" stroke="#b8bac0" stroke-width="0.09375" opacity="1.00" d=" M 135.26 155.09 C 140.75 154.28 146.39 154.42 151.92 154.91 C 155.22 155.14 155.83 160.63 152.60 161.51 C 147.51 162.39 142.25 162.18 137.13 161.73 C 133.76 161.83 132.25 156.72 135.26 155.09 Z" />
<path fill="#b8bac0" stroke="#b8bac0" stroke-width="0.09375" opacity="1.00" d=" M 163.30 155.12 C 168.47 154.23 173.79 154.52 179.00 154.81 C 181.43 154.66 183.86 157.18 182.63 159.58 C 181.88 161.94 179.06 161.82 177.07 161.98 C 172.83 162.08 168.55 162.30 164.36 161.58 C 161.45 161.15 160.72 156.38 163.30 155.12 Z" />
<path fill="#b8bac0" stroke="#b8bac0" stroke-width="0.09375" opacity="1.00" d=" M 191.31 155.18 C 197.06 154.29 203.05 154.28 208.81 155.13 C 211.25 155.27 211.48 158.63 210.31 160.24 C 209.25 162.07 206.85 161.73 205.07 161.98 C 200.86 162.06 196.58 162.34 192.41 161.57 C 189.57 161.03 188.75 156.52 191.31 155.18 Z" />
<path fill="#8a8895" stroke="#8a8895" stroke-width="0.09375" opacity="1.00" d=" M 107.30 169.17 C 109.82 168.57 112.43 168.67 115.01 168.65 C 126.02 168.80 137.03 168.68 148.04 168.66 C 150.19 168.84 153.04 168.54 154.30 170.73 C 155.70 172.12 154.24 174.06 153.12 175.10 C 150.98 176.32 148.39 176.10 146.02 176.22 C 135.34 176.12 124.66 176.12 113.98 176.22 C 111.37 176.07 108.37 176.39 106.21 174.62 C 105.37 172.87 105.47 170.25 107.30 169.17 Z" />
<path fill="#8a8895" stroke="#8a8895" stroke-width="0.09375" opacity="1.00" d=" M 163.33 169.19 C 168.48 168.27 173.79 168.49 178.98 168.90 C 181.48 168.82 184.38 172.02 182.42 174.28 C 181.33 176.19 178.94 176.06 177.05 176.20 C 173.08 176.29 169.07 176.47 165.12 175.87 C 162.09 175.51 160.33 170.89 163.33 169.19 Z" />
</svg>
