<?xml version="1.0" encoding="UTF-8" ?>
<!DOCTYPE svg PUBLIC "-//W3C//DTD SVG 1.1//EN" "http://www.w3.org/Graphics/SVG/1.1/DTD/svg11.dtd">
<svg width="512pt" height="512pt" viewBox="0 0 512 512" version="1.1" xmlns="http://www.w3.org/2000/svg">
<path fill="#363b38" stroke="#363b38" stroke-width="0.09375" opacity="1.00" d=" M 31.55 136.72 C 33.90 125.17 45.15 116.18 56.95 116.46 C 188.64 116.47 320.33 116.46 452.02 116.47 C 455.11 116.47 458.24 116.38 461.31 116.93 L 460.21 117.04 C 456.20 117.22 452.19 117.18 448.18 117.27 C 447.88 148.18 448.22 179.10 448.07 210.01 C 447.82 226.67 449.13 243.50 445.77 259.94 C 442.67 275.51 437.47 290.80 429.53 304.59 C 426.55 309.66 423.24 314.57 420.75 319.92 L 420.35 319.36 C 414.86 311.86 405.41 307.08 396.04 308.65 C 389.69 309.11 384.53 313.07 379.87 317.04 C 375.15 313.35 370.25 309.23 364.01 308.71 C 351.26 306.28 337.79 315.72 335.40 328.40 C 333.29 337.35 336.72 347.34 343.82 353.18 C 350.10 358.62 359.17 360.62 367.13 358.13 C 372.05 356.99 375.93 353.62 379.55 350.30 C 380.80 351.36 382.03 352.43 383.30 353.48 C 383.78 353.86 384.27 354.23 384.77 354.60 C 382.65 355.48 380.53 356.35 378.55 357.50 C 361.96 367.98 343.08 374.86 323.66 377.60 C 313.79 378.34 303.92 379.37 294.01 379.09 C 211.00 379.07 127.99 379.07 44.98 379.09 C 41.25 379.08 37.52 378.73 33.79 378.90 C 33.56 379.02 33.09 379.25 32.86 379.36 L 32.46 379.56 C 32.12 377.89 31.68 376.23 31.51 374.54 C 31.53 295.26 31.44 215.99 31.55 136.72 M 67.64 156.77 C 64.66 157.71 62.30 160.11 60.77 162.76 C 60.16 164.78 60.31 166.93 60.25 169.02 C 60.32 178.33 60.22 187.64 60.29 196.95 C 59.77 202.76 65.40 207.70 71.02 207.42 C 89.36 207.43 107.70 207.45 126.04 207.41 C 131.53 207.46 136.50 202.46 136.47 196.98 C 136.52 186.98 136.50 176.97 136.48 166.97 C 136.61 161.42 131.67 156.13 126.01 156.46 C 107.99 156.43 89.96 156.48 71.94 156.43 C 70.50 156.47 69.05 156.45 67.64 156.77 M 64.42 250.69 C 61.00 251.67 59.28 256.45 61.67 259.26 C 62.80 261.09 64.98 261.68 67.02 261.58 C 87.35 261.57 107.68 261.51 128.01 261.60 C 130.09 261.50 132.56 261.78 134.14 260.11 C 137.37 257.24 135.64 250.53 131.05 250.50 C 111.37 250.33 91.67 250.53 71.99 250.41 C 69.47 250.42 66.92 250.24 64.42 250.69 M 158.41 250.68 C 155.01 251.67 153.23 256.51 155.70 259.29 C 157.02 261.46 159.70 261.65 161.98 261.60 C 181.99 261.53 202.00 261.53 222.01 261.60 C 224.28 261.54 227.07 261.70 228.58 259.62 C 231.53 256.27 228.85 249.69 224.08 250.44 C 202.20 250.60 180.27 250.12 158.41 250.68 M 252.35 250.70 C 249.27 251.70 247.39 255.87 249.31 258.69 C 250.34 260.81 252.67 261.77 254.94 261.57 C 275.29 261.58 295.65 261.51 316.00 261.60 C 318.09 261.51 320.57 261.76 322.14 260.06 C 325.46 257.17 323.53 250.56 318.90 250.52 C 298.62 250.29 278.33 250.56 258.04 250.40 C 256.14 250.41 254.22 250.33 252.35 250.70 M 346.37 250.67 C 343.30 251.73 341.33 255.86 343.32 258.73 C 344.35 260.86 346.74 261.75 349.00 261.57 C 369.31 261.58 389.62 261.50 409.94 261.60 C 412.04 261.54 414.48 261.71 416.06 260.03 C 419.53 257.25 417.49 250.53 412.91 250.51 C 392.63 250.30 372.34 250.56 352.06 250.39 C 350.16 250.40 348.24 250.33 346.37 250.67 M 142.23 312.34 C 137.33 313.86 137.88 322.09 143.07 322.61 C 155.72 323.21 168.39 322.62 181.05 322.81 C 183.57 322.77 186.12 322.93 188.61 322.41 C 191.56 321.09 192.66 316.92 190.77 314.28 C 189.14 311.67 185.69 311.78 182.99 311.67 C 171.67 311.70 160.35 311.75 149.03 311.65 C 146.76 311.68 144.41 311.60 142.23 312.34 M 64.39 345.66 C 61.20 346.57 59.45 350.83 61.34 353.66 C 62.58 356.09 65.56 356.51 68.00 356.49 C 104.66 356.44 141.32 356.47 177.98 356.48 C 181.30 356.42 184.69 356.78 187.96 356.06 C 191.71 355.01 193.02 349.45 190.11 346.86 C 188.80 345.47 186.79 345.45 185.04 345.40 C 148.37 345.43 111.69 345.41 75.02 345.41 C 71.48 345.46 67.90 345.13 64.39 345.66 Z" />
<path fill="#2e322f" stroke="#2e322f" stroke-width="0.09375" opacity="1.00" d=" M 448.18 117.27 C 452.19 117.18 456.20 117.22 460.21 117.04 C 466.97 117.59 472.63 122.25 476.52 127.52 C 480.84 133.39 481.58 140.98 481.39 148.05 C 481.34 208.05 481.38 268.05 481.37 328.06 C 481.26 342.70 481.60 357.36 481.20 372.00 C 480.79 373.67 480.49 375.37 480.24 377.08 C 476.94 387.36 467.09 395.75 456.02 395.54 C 322.69 395.54 189.36 395.53 56.03 395.54 C 45.95 395.74 36.37 388.68 32.86 379.36 C 33.09 379.25 33.56 379.02 33.79 378.90 C 37.52 378.73 41.25 379.08 44.98 379.09 C 127.99 379.07 211.00 379.07 294.01 379.09 C 303.92 379.37 313.79 378.34 323.66 377.60 C 343.08 374.86 361.96 367.98 378.55 357.50 C 380.53 356.35 382.65 355.48 384.77 354.60 C 391.04 359.39 399.68 360.78 407.13 358.17 C 414.95 355.88 421.26 349.35 423.74 341.66 C 425.43 334.43 425.14 326.19 420.75 319.92 C 423.24 314.57 426.55 309.66 429.53 304.59 C 437.47 290.80 442.67 275.51 445.77 259.94 C 449.13 243.50 447.82 226.67 448.07 210.01 C 448.22 179.10 447.88 148.18 448.18 117.27 Z" />
<path fill="#1a1d1b" stroke="#1a1d1b" stroke-width="0.09375" opacity="0.50" d=" M 30.49 141.95 C 30.47 140.14 30.98 138.41 31.55 136.72 C 31.44 215.99 31.53 295.26 31.51 374.54 C 31.01 373.08 30.47 371.60 30.50 370.05 C 30.49 294.02 30.50 217.98 30.49 141.95 Z" />
<path fill="#eaa500" stroke="#eaa500" stroke-width="0.09375" opacity="1.00" d=" M 67.64 156.77 C 69.05 156.45 70.50 156.47 71.94 156.43 C 89.96 156.48 107.99 156.43 126.01 156.46 C 131.67 156.13 136.61 161.42 136.48 166.97 C 136.50 176.97 136.52 186.98 136.47 196.98 C 136.50 202.46 131.53 207.46 126.04 207.41 C 107.70 207.45 89.36 207.43 71.02 207.42 C 65.40 207.70 59.77 202.76 60.29 196.95 C 60.22 187.64 60.32 178.33 60.25 169.02 C 60.31 166.93 60.16 164.78 60.77 162.76 C 62.30 160.11 64.66 157.71 67.64 156.77 Z" />
<path fill="#545c56" stroke="#545c56" stroke-width="0.09375" opacity="1.00" d=" M 64.42 250.69 C 66.92 250.24 69.47 250.42 71.99 250.41 C 91.67 250.53 111.37 250.33 131.05 250.50 C 135.64 250.53 137.37 257.24 134.14 260.11 C 132.56 261.78 130.09 261.50 128.01 261.60 C 107.68 261.51 87.35 261.57 67.02 261.58 C 64.98 261.68 62.80 261.09 61.67 259.26 C 59.28 256.45 61.00 251.67 64.42 250.69 Z" />
<path fill="#545c56" stroke="#545c56" stroke-width="0.09375" opacity="1.00" d=" M 158.41 250.68 C 180.27 250.12 202.20 250.60 224.08 250.44 C 228.85 249.69 231.53 256.27 228.58 259.62 C 227.07 261.70 224.28 261.54 222.01 261.60 C 202.00 261.53 181.99 261.53 161.98 261.60 C 159.70 261.65 157.02 261.46 155.70 259.29 C 153.23 256.51 155.01 251.67 158.41 250.68 Z" />
<path fill="#545c56" stroke="#545c56" stroke-width="0.09375" opacity="1.00" d=" M 252.35 250.70 C 254.22 250.33 256.14 250.41 258.04 250.40 C 278.33 250.56 298.62 250.29 318.90 250.52 C 323.53 250.56 325.46 257.17 322.14 260.06 C 320.57 261.76 318.09 261.51 316.00 261.60 C 295.65 261.51 275.29 261.58 254.94 261.57 C 252.67 261.77 250.34 260.81 249.31 258.69 C 247.39 255.87 249.27 251.70 252.35 250.70 Z" />
<path fill="#545c56" stroke="#545c56" stroke-width="0.09375" opacity="1.00" d=" M 346.37 250.67 C 348.24 250.33 350.16 250.40 352.06 250.39 C 372.34 250.56 392.63 250.30 412.91 250.51 C 417.49 250.53 419.53 257.25 416.06 260.03 C 414.48 261.71 412.04 261.54 409.94 261.60 C 389.62 261.50 369.31 261.58 349.00 261.57 C 346.74 261.75 344.35 260.86 343.32 258.73 C 341.33 255.86 343.30 251.73 346.37 250.67 Z" />
<path fill="#545c56" stroke="#545c56" stroke-width="0.09375" opacity="1.00" d=" M 335.40 328.40 C 337.79 315.72 351.26 306.28 364.01 308.71 C 370.25 309.23 375.15 313.35 379.87 317.04 C 384.53 313.07 389.69 309.11 396.04 308.65 C 405.41 307.08 414.86 311.86 420.35 319.36 C 414.57 326.53 409.21 334.20 401.98 340.02 C 396.11 344.94 390.92 351.24 383.30 353.48 C 382.03 352.43 380.80 351.36 379.55 350.30 C 375.93 353.62 372.05 356.99 367.13 358.13 C 359.17 360.62 350.10 358.62 343.82 353.18 C 336.72 347.34 333.29 337.35 335.40 328.40 Z" />
<path fill="#545c56" stroke="#545c56" stroke-width="0.09375" opacity="1.00" d=" M 142.23 312.34 C 144.41 311.60 146.76 311.68 149.03 311.65 C 160.35 311.75 171.67 311.70 182.99 311.67 C 185.69 311.78 189.14 311.67 190.77 314.28 C 192.66 316.92 191.56 321.09 188.61 322.41 C 186.12 322.93 183.57 322.77 181.05 322.81 C 168.39 322.62 155.72 323.21 143.07 322.61 C 137.88 322.09 137.33 313.86 142.23 312.34 Z" />
<path fill="#494f4a" stroke="#494f4a" stroke-width="0.09375" opacity="1.00" d=" M 401.98 340.02 C 409.21 334.20 414.57 326.53 420.35 319.36 L 420.75 319.92 C 425.14 326.19 425.43 334.43 423.74 341.66 C 421.26 349.35 414.95 355.88 407.13 358.17 C 399.68 360.78 391.04 359.39 384.77 354.60 C 384.27 354.23 383.78 353.86 383.30 353.48 C 390.92 351.24 396.11 344.94 401.98 340.02 Z" />
<path fill="#545c56" stroke="#545c56" stroke-width="0.09375" opacity="1.00" d=" M 64.39 345.66 C 67.90 345.13 71.48 345.46 75.02 345.41 C 111.69 345.41 148.37 345.43 185.04 345.40 C 186.79 345.45 188.80 345.47 190.11 346.86 C 193.02 349.45 191.71 355.01 187.96 356.06 C 184.69 356.78 181.30 356.42 177.98 356.48 C 141.32 356.47 104.66 356.44 68.00 356.49 C 65.56 356.51 62.58 356.09 61.34 353.66 C 59.45 350.83 61.20 346.57 64.39 345.66 Z" />
</svg>
