<?xml version="1.0" encoding="UTF-8" ?>
<!DOCTYPE svg PUBLIC "-//W3C//DTD SVG 1.1//EN" "http://www.w3.org/Graphics/SVG/1.1/DTD/svg11.dtd">
<svg width="977pt" height="892pt" viewBox="0 0 977 892" version="1.1" xmlns="http://www.w3.org/2000/svg">
<path fill="#0d0d0d" stroke="#0d0d0d" stroke-width="0.09375" opacity="1.00" d=" M 484.43 98.55 C 550.23 97.45 616.02 100.24 681.73 103.63 C 700.48 105.24 719.30 99.48 737.97 103.11 C 752.35 106.25 764.65 115.01 775.86 124.16 C 791.72 137.31 805.45 152.86 817.47 169.56 C 836.46 194.89 839.75 228.17 858.14 253.84 C 880.15 284.00 914.24 302.62 935.98 333.02 C 947.04 347.61 952.45 365.80 953.46 383.94 C 954.21 399.66 953.41 415.87 947.77 430.74 C 941.99 446.23 932.29 460.01 920.77 471.76 C 901.85 491.53 880.68 509.67 866.21 533.19 C 856.41 548.74 852.34 566.93 844.34 583.33 C 841.09 590.36 836.20 596.44 831.49 602.52 C 811.16 628.01 785.17 648.36 757.76 665.73 C 705.07 698.99 646.85 721.80 591.05 749.08 C 573.16 757.65 555.79 767.25 538.07 776.15 C 523.71 783.19 509.24 790.33 493.76 794.58 C 475.54 799.67 456.73 802.06 438.14 805.37 C 412.75 809.28 388.05 816.55 362.89 821.64 C 315.03 831.63 265.97 838.98 216.98 834.85 C 185.99 832.37 154.78 823.88 128.94 806.11 C 112.95 795.25 100.02 780.30 90.25 763.72 C 87.81 758.98 84.84 754.28 83.91 748.97 C 80.85 703.75 87.44 658.68 93.25 613.95 C 98.22 574.15 100.89 533.30 92.44 493.77 C 85.69 467.26 70.81 443.95 59.82 419.15 C 50.32 398.18 43.99 375.24 45.54 352.05 C 46.30 341.91 48.13 331.65 52.36 322.35 C 67.70 294.93 96.98 278.57 111.56 250.61 C 120.06 235.22 122.32 217.26 121.86 199.92 C 121.19 196.74 124.19 195.06 126.08 193.11 C 155.06 165.83 191.23 147.40 228.61 134.50 C 269.79 120.19 312.85 112.10 356.03 106.73 C 398.64 101.70 441.54 99.29 484.43 98.55 M 307.86 136.78 C 313.08 138.47 318.56 139.10 323.97 139.84 C 339.44 141.66 355.05 142.08 370.61 141.56 C 428.68 139.55 485.71 124.72 543.98 125.82 C 585.03 126.39 625.56 138.05 661.62 157.45 C 694.54 175.32 724.63 197.81 753.93 221.01 C 738.21 214.29 724.20 204.27 709.78 195.23 C 690.66 182.80 671.56 170.25 651.27 159.78 C 618.45 142.89 582.14 131.52 545.01 131.01 C 483.86 130.23 424.22 149.57 362.97 146.72 C 331.06 145.51 299.14 138.81 267.21 143.12 C 217.52 150.34 171.59 177.02 138.53 214.49 C 137.80 215.54 136.43 216.50 136.68 217.95 C 137.12 228.85 137.11 239.92 134.46 250.58 C 132.14 260.08 127.65 268.98 121.80 276.79 C 110.61 291.80 95.46 303.31 84.35 318.39 C 78.64 326.05 74.37 334.78 71.79 343.98 C 66.78 362.08 67.75 381.35 71.62 399.56 C 77.26 420.25 92.95 435.88 102.17 454.84 C 110.94 472.86 114.01 492.96 116.14 512.70 C 118.13 536.73 117.24 560.91 115.26 584.92 C 111.23 632.95 102.92 680.69 102.97 729.01 C 101.86 743.39 107.87 757.32 116.46 768.55 C 126.20 781.78 140.19 791.28 155.02 797.98 C 173.36 806.13 193.22 810.22 213.07 812.53 C 257.66 817.42 302.71 813.04 346.75 805.46 C 370.91 801.29 394.94 795.80 417.93 787.16 C 433.39 781.81 448.67 775.10 465.11 773.50 C 474.16 772.60 483.06 775.28 492.09 775.00 C 498.43 774.37 504.23 771.47 510.03 769.05 C 537.05 756.75 562.14 740.67 589.06 728.15 C 645.11 701.36 702.94 677.45 754.86 642.91 C 779.56 626.22 803.20 607.11 820.92 582.90 C 827.85 573.48 833.23 562.98 836.97 551.90 C 842.38 536.98 846.29 521.00 856.23 508.24 C 861.22 501.32 868.74 496.95 875.93 492.67 C 875.42 490.87 874.62 489.17 873.83 487.50 C 869.80 489.72 866.08 492.51 861.80 494.24 C 860.26 495.22 858.81 493.73 857.48 493.16 C 866.28 488.64 875.05 483.96 883.04 478.08 C 904.99 462.26 923.55 439.97 930.21 413.32 C 935.15 393.92 933.69 372.86 925.48 354.55 C 910.98 321.10 878.21 296.78 842.26 291.53 C 828.74 289.37 815.00 290.09 801.42 291.19 C 804.57 288.47 808.58 286.86 812.71 286.42 C 827.52 284.52 842.33 288.74 857.15 287.11 C 852.90 281.91 848.60 276.76 844.86 271.18 C 823.67 240.44 812.10 204.37 791.96 173.03 C 784.09 160.92 775.16 149.26 763.80 140.21 C 751.24 130.08 736.04 122.90 719.92 121.02 C 705.68 119.33 691.33 119.06 677.00 118.88 C 653.31 118.82 629.67 117.06 605.99 116.96 C 506.29 115.44 406.51 122.40 307.86 136.78 Z" />
<path fill="#fcfcfc" stroke="#fcfcfc" stroke-width="0.09375" opacity="1.00" d=" M 307.86 136.78 C 406.51 122.40 506.29 115.44 605.99 116.96 C 629.67 117.06 653.31 118.82 677.00 118.88 C 691.33 119.06 705.68 119.33 719.92 121.02 C 736.04 122.90 751.24 130.08 763.80 140.21 C 775.16 149.26 784.09 160.92 791.96 173.03 C 812.10 204.37 823.67 240.44 844.86 271.18 C 848.60 276.76 852.90 281.91 857.15 287.11 C 842.33 288.74 827.52 284.52 812.71 286.42 C 808.58 286.86 804.57 288.47 801.42 291.19 C 815.00 290.09 828.74 289.37 842.26 291.53 C 878.21 296.78 910.98 321.10 925.48 354.55 C 933.69 372.86 935.15 393.92 930.21 413.32 C 923.55 439.97 904.99 462.26 883.04 478.08 C 875.05 483.96 866.28 488.64 857.48 493.16 C 858.81 493.73 860.26 495.22 861.80 494.24 C 866.08 492.51 869.80 489.72 873.83 487.50 C 874.62 489.17 875.42 490.87 875.93 492.67 C 868.74 496.95 861.22 501.32 856.23 508.24 C 846.29 521.00 842.38 536.98 836.97 551.90 C 833.23 562.98 827.85 573.48 820.92 582.90 C 803.20 607.11 779.56 626.22 754.86 642.91 C 702.94 677.45 645.11 701.36 589.06 728.15 C 562.14 740.67 537.05 756.75 510.03 769.05 C 504.23 771.47 498.43 774.37 492.09 775.00 C 483.06 775.28 474.16 772.60 465.11 773.50 C 448.67 775.10 433.39 781.81 417.93 787.16 C 394.94 795.80 370.91 801.29 346.75 805.46 C 302.71 813.04 257.66 817.42 213.07 812.53 C 193.22 810.22 173.36 806.13 155.02 797.98 C 140.19 791.28 126.20 781.78 116.46 768.55 C 107.87 757.32 101.86 743.39 102.97 729.01 C 102.92 680.69 111.23 632.95 115.26 584.92 C 117.24 560.91 118.13 536.73 116.14 512.70 C 114.01 492.96 110.94 472.86 102.17 454.84 C 92.95 435.88 77.26 420.25 71.62 399.56 C 67.75 381.35 66.78 362.08 71.79 343.98 C 74.37 334.78 78.64 326.05 84.35 318.39 C 95.46 303.31 110.61 291.80 121.80 276.79 C 127.65 268.98 132.14 260.08 134.46 250.58 C 137.11 239.92 137.12 228.85 136.68 217.95 C 136.43 216.50 137.80 215.54 138.53 214.49 C 171.59 177.02 217.52 150.34 267.21 143.12 C 299.14 138.81 331.06 145.51 362.97 146.72 C 424.22 149.57 483.86 130.23 545.01 131.01 C 582.14 131.52 618.45 142.89 651.27 159.78 C 671.56 170.25 690.66 182.80 709.78 195.23 C 724.20 204.27 738.21 214.29 753.93 221.01 C 724.63 197.81 694.54 175.32 661.62 157.45 C 625.56 138.05 585.03 126.39 543.98 125.82 C 485.71 124.72 428.68 139.55 370.61 141.56 C 355.05 142.08 339.44 141.66 323.97 139.84 C 318.56 139.10 313.08 138.47 307.86 136.78 M 452.91 159.92 C 413.30 165.90 373.27 171.77 333.10 169.32 C 310.48 168.29 288.69 160.65 266.01 160.26 C 258.71 160.20 251.20 160.48 244.30 163.09 C 236.03 166.21 228.36 171.89 224.15 179.79 C 231.94 178.20 237.78 172.48 244.22 168.26 C 245.98 167.20 247.75 165.73 249.94 165.87 C 255.07 165.96 260.13 166.91 265.23 167.43 C 315.27 173.54 365.83 178.81 416.25 174.57 C 433.00 172.85 449.18 168.01 465.57 164.42 C 486.19 159.64 507.51 159.12 528.58 159.54 C 568.71 160.64 608.72 169.70 644.99 187.02 C 676.55 201.78 705.10 222.22 731.28 245.05 C 729.81 242.21 727.77 239.73 725.73 237.28 C 703.36 211.74 675.04 191.66 644.02 177.98 C 603.90 160.30 559.70 153.07 516.02 153.81 C 494.85 154.08 473.78 156.48 452.91 159.92 M 512.04 184.55 C 504.49 185.36 496.69 185.42 489.51 188.18 C 525.04 186.66 560.90 187.17 595.95 193.82 C 615.58 197.59 635.17 202.71 653.08 211.78 C 667.64 219.05 681.15 228.96 691.07 241.97 C 693.21 244.69 694.86 247.76 697.13 250.38 C 694.84 240.63 688.89 232.11 681.96 225.04 C 671.00 214.26 657.35 206.56 643.14 200.91 C 601.71 184.41 556.17 180.83 512.04 184.55 M 274.71 196.52 C 261.60 198.97 248.53 202.50 236.64 208.64 C 232.33 211.12 227.78 213.77 224.94 217.97 C 219.88 228.03 215.66 238.86 215.10 250.22 C 218.76 242.88 220.93 234.69 226.22 228.23 C 237.94 212.93 256.64 204.89 275.12 201.34 C 307.29 195.74 340.83 199.96 371.14 211.84 C 371.97 209.51 374.14 206.91 372.79 204.38 C 369.16 201.09 364.13 200.18 359.46 199.39 C 354.19 198.61 349.01 197.35 343.76 196.50 C 320.96 192.64 297.48 192.40 274.71 196.52 M 500.82 195.79 C 493.61 202.03 489.37 210.87 482.87 217.76 C 481.85 227.15 481.03 237.54 485.98 246.03 C 488.50 239.31 486.91 232.01 487.94 225.07 C 491.90 213.37 500.38 203.50 510.86 197.10 C 507.89 195.55 503.87 193.06 500.82 195.79 M 347.30 222.90 C 350.52 229.59 356.84 233.97 360.87 240.06 C 363.65 248.57 359.75 257.40 360.25 266.07 C 360.22 270.61 362.22 274.99 365.56 278.05 C 365.81 264.20 365.92 250.30 365.56 236.47 C 361.61 231.83 358.37 226.67 355.59 221.27 C 352.97 220.39 349.98 222.39 347.30 222.90 M 552.11 248.25 C 533.82 252.05 515.64 257.76 499.67 267.64 C 488.01 274.96 477.14 284.45 470.79 296.85 C 467.08 303.91 470.05 312.38 475.09 317.93 C 482.76 326.30 494.02 330.01 502.10 337.91 C 512.24 332.56 522.50 327.40 533.13 323.09 C 564.27 310.28 598.25 302.97 632.01 305.90 C 647.94 307.21 662.87 314.82 679.03 314.22 C 686.33 314.13 692.82 310.21 698.41 305.85 C 694.74 287.34 681.69 271.81 665.82 262.17 C 654.63 255.49 642.10 251.28 629.44 248.38 C 604.05 242.80 577.58 243.58 552.11 248.25 M 242.06 274.09 C 231.60 279.59 223.08 289.32 220.49 301.01 C 235.41 307.63 251.77 309.99 267.89 311.61 C 284.34 313.13 300.86 314.13 317.23 316.41 C 329.82 318.19 342.42 321.21 353.68 327.27 C 354.64 327.96 356.53 328.41 356.23 329.97 C 356.29 340.66 356.23 351.34 356.25 362.02 C 323.31 387.37 292.43 416.17 255.03 435.04 C 250.31 437.62 245.12 439.24 240.50 442.00 C 245.51 442.92 250.69 442.17 255.49 440.61 C 268.71 436.18 279.39 426.27 292.95 422.65 C 295.57 427.41 296.78 432.87 300.10 437.27 C 306.64 437.41 310.83 431.93 314.97 427.73 C 334.49 440.30 345.87 462.07 365.69 474.28 C 371.38 477.79 379.08 479.83 385.18 476.13 C 394.37 470.53 399.47 460.32 402.92 450.49 C 400.30 449.14 398.01 447.08 395.17 446.24 C 389.36 448.87 385.05 454.31 378.67 455.77 C 374.63 456.76 370.92 454.20 367.42 452.58 C 351.55 443.91 341.34 428.22 332.58 412.94 C 333.94 408.64 336.28 404.65 339.47 401.45 C 349.63 390.99 364.87 387.42 374.76 376.65 C 375.65 361.92 374.58 347.07 375.26 332.35 C 382.68 323.37 396.17 324.33 404.20 316.19 C 407.37 313.12 407.52 308.29 407.22 304.17 C 397.02 298.81 385.52 302.81 375.29 305.85 C 369.53 297.27 361.45 290.49 352.45 285.52 C 340.94 279.13 328.51 274.44 315.75 271.25 C 299.26 267.01 281.99 265.18 265.05 267.42 C 257.14 268.55 249.14 270.21 242.06 274.09 M 707.78 286.96 C 715.35 294.66 726.69 295.36 736.76 296.73 C 731.97 302.99 723.43 300.38 716.72 301.15 C 722.59 306.62 731.65 307.38 739.05 305.01 C 744.82 303.22 749.60 298.43 750.80 292.42 C 735.98 295.08 722.52 285.29 707.78 286.96 M 143.61 297.28 C 140.11 296.91 136.42 295.61 132.98 297.01 C 105.93 307.31 83.68 331.01 77.44 359.57 C 72.68 380.87 75.37 403.72 84.50 423.50 C 93.44 433.08 106.99 435.56 118.63 440.48 C 125.46 442.98 131.11 447.67 137.29 451.36 C 137.44 447.83 138.39 443.29 135.13 440.81 C 122.73 431.18 105.69 431.17 93.08 421.89 C 89.86 419.75 88.54 415.95 87.37 412.46 C 82.19 397.16 79.56 380.62 82.35 364.57 C 84.76 350.40 91.91 337.20 102.23 327.24 C 116.36 313.32 135.39 305.51 154.62 301.76 C 173.30 298.10 192.50 298.92 211.32 300.97 C 205.58 294.59 196.29 292.69 188.08 293.95 C 173.40 296.24 158.51 299.58 143.61 297.28 M 788.69 299.46 C 802.73 301.06 816.91 300.53 831.00 301.61 C 844.46 302.61 858.18 305.14 870.05 311.87 C 883.81 319.98 894.29 333.30 899.90 348.15 C 901.90 365.33 902.02 382.74 900.48 399.98 C 901.64 401.24 902.82 402.49 904.08 403.68 C 904.81 391.82 906.07 379.90 904.86 368.03 C 903.53 351.30 898.86 334.14 887.89 321.07 C 876.89 308.09 860.37 301.07 843.88 298.33 C 832.04 296.18 819.98 296.84 808.02 296.75 C 801.52 296.94 794.82 297.06 788.69 299.46 M 706.95 310.25 C 707.32 311.35 707.97 312.35 708.96 313.01 C 712.96 316.29 717.99 318.45 723.24 318.27 C 720.37 312.34 713.58 308.08 706.95 310.25 M 744.03 323.04 C 727.18 330.97 711.64 342.15 693.24 346.37 C 673.84 351.01 651.70 349.90 635.02 337.96 C 622.41 329.37 611.04 317.17 595.20 314.99 C 595.49 321.94 596.58 329.02 599.75 335.29 C 604.83 344.91 613.90 351.87 623.67 356.29 C 639.42 363.35 656.91 365.20 674.00 365.35 C 697.11 365.22 720.30 361.29 741.89 352.94 C 753.55 348.52 764.45 342.09 773.69 333.70 C 786.05 332.42 798.81 332.35 810.99 335.20 C 826.01 338.60 840.24 347.30 848.41 360.59 C 854.94 371.50 858.92 384.30 857.91 397.10 C 857.23 406.74 852.34 415.29 849.17 424.23 C 845.88 432.65 844.23 442.42 848.12 450.94 C 857.81 442.85 865.95 432.76 871.24 421.26 C 878.96 404.73 879.38 385.06 872.82 368.08 C 866.86 352.58 855.76 339.23 841.95 330.08 C 826.98 319.93 808.99 314.73 791.00 314.00 C 774.94 313.38 758.54 315.91 744.03 323.04 M 110.00 336.95 C 109.05 337.77 107.63 338.55 107.78 340.03 C 106.97 354.06 104.94 368.00 104.50 382.05 C 103.97 385.23 106.65 387.45 108.30 389.79 C 112.11 379.60 109.82 368.58 110.49 358.00 C 110.86 353.01 111.53 347.72 114.51 343.54 C 122.40 332.79 139.25 333.02 145.25 320.34 C 132.96 324.51 120.43 328.99 110.00 336.95 M 143.08 343.15 C 134.13 347.89 128.66 357.39 126.52 367.03 C 145.61 365.74 163.78 357.66 183.07 358.32 C 189.64 358.76 196.88 359.41 202.02 364.00 C 208.00 369.23 210.61 377.24 211.27 384.95 C 228.86 384.52 247.44 387.43 264.03 380.05 C 272.89 376.36 276.58 366.26 276.89 357.30 C 273.25 354.97 268.74 352.80 264.39 354.49 C 257.02 357.50 251.23 363.23 244.22 366.91 C 227.02 351.36 204.56 342.76 182.00 338.68 C 169.00 336.48 154.96 336.88 143.08 343.15 M 775.77 350.79 C 771.73 356.68 772.94 364.18 772.90 370.90 C 696.71 406.76 618.23 438.31 537.00 460.82 C 489.94 473.73 441.83 483.61 393.05 486.73 C 352.00 489.12 310.04 487.03 270.66 474.32 C 245.11 466.14 220.72 453.37 200.95 435.05 C 199.31 433.40 197.13 431.97 196.56 429.57 C 191.42 411.76 195.70 392.21 187.85 375.03 C 184.44 375.03 179.75 373.01 177.35 376.35 C 174.01 383.97 176.59 392.99 172.46 400.40 C 163.31 417.45 153.67 434.84 150.53 454.19 C 146.14 484.17 145.47 514.74 149.00 544.84 C 151.40 564.51 155.15 584.16 162.11 602.77 C 167.01 615.83 173.68 628.47 183.37 638.62 C 191.39 646.82 202.24 651.35 212.90 655.03 C 232.07 661.49 252.02 665.33 272.02 668.10 C 295.23 671.21 318.60 673.09 342.00 673.98 C 389.82 675.78 437.80 674.48 485.38 669.23 C 511.50 666.33 537.61 661.92 562.57 653.49 C 596.43 641.72 628.62 625.32 658.42 605.44 C 670.07 597.56 681.54 589.37 692.27 580.26 C 708.06 566.69 721.90 550.96 734.10 534.12 C 754.64 506.58 770.62 475.19 796.29 451.82 C 797.29 448.47 794.40 445.36 794.33 441.96 C 792.70 433.63 797.52 426.29 801.35 419.37 C 802.54 417.40 804.52 415.56 806.97 415.65 C 814.07 415.91 820.86 418.31 827.92 418.99 C 833.86 419.81 840.05 418.47 844.75 414.64 C 843.84 413.13 842.82 411.68 841.58 410.43 C 828.49 396.53 808.19 391.98 796.16 376.86 C 789.20 368.57 787.76 357.39 787.26 346.96 C 783.31 347.45 778.41 347.23 775.77 350.79 M 478.08 399.83 C 491.39 406.29 506.95 403.05 520.61 408.31 C 521.64 413.53 523.37 419.13 521.20 424.31 C 518.46 431.14 510.59 433.84 507.34 440.31 C 505.56 443.78 506.19 447.79 506.36 451.53 C 511.06 452.83 515.89 455.01 520.86 453.92 C 527.58 452.14 532.69 446.60 535.50 440.42 C 540.32 430.01 540.60 418.24 540.07 406.98 C 539.56 403.42 539.37 399.14 536.16 396.85 C 526.18 388.31 512.80 385.40 500.06 384.18 C 490.39 383.33 478.71 389.09 478.08 399.83 M 547.04 386.12 C 542.28 388.80 543.19 395.00 544.84 399.31 C 546.51 404.40 551.72 407.18 556.67 408.23 C 573.39 411.68 590.37 405.83 607.14 408.60 C 611.52 409.24 615.61 411.02 619.67 412.71 C 620.29 409.00 618.36 404.65 614.12 404.67 C 595.18 401.49 575.78 407.54 556.99 402.88 C 551.99 401.81 547.94 397.33 547.64 392.19 C 549.59 390.89 551.40 389.41 553.24 387.97 C 551.28 387.03 549.15 386.56 547.04 386.12 M 104.94 389.86 C 106.13 397.42 108.34 405.49 114.31 410.73 C 119.90 415.88 127.72 417.40 135.04 418.07 C 128.78 411.21 120.46 406.65 114.23 399.75 C 111.02 396.50 109.58 391.52 104.94 389.86 M 900.12 401.94 C 898.55 421.08 892.96 441.09 878.98 454.95 C 870.99 462.50 860.52 466.91 849.88 469.15 C 848.38 469.43 846.95 469.94 845.61 470.65 C 848.91 471.49 852.38 472.53 855.78 471.60 C 870.44 468.32 882.48 458.79 894.89 450.88 C 899.02 436.52 901.27 421.64 903.67 406.90 C 902.52 405.21 901.37 403.54 900.12 401.94 M 442.42 420.45 C 434.56 422.56 427.58 428.87 426.30 437.16 C 444.14 445.66 463.95 434.31 482.29 439.85 C 486.21 440.99 489.58 443.38 492.84 445.76 C 496.73 438.87 497.57 430.76 496.96 422.98 C 479.48 417.35 460.28 415.40 442.42 420.45 M 668.00 634.09 C 645.93 642.52 624.86 653.30 603.64 663.63 C 569.49 680.31 534.81 696.65 497.83 706.04 C 456.74 716.47 414.09 716.98 371.98 718.48 C 359.31 718.72 346.69 720.33 334.00 720.13 C 318.17 720.31 302.34 719.24 286.65 717.15 C 268.90 714.70 251.07 711.44 234.41 704.64 C 220.98 699.20 208.21 691.39 198.68 680.33 C 196.22 677.57 194.33 674.38 191.90 671.61 C 193.77 684.34 201.12 696.00 211.55 703.48 C 224.22 712.63 239.73 716.81 255.00 719.09 C 285.80 723.75 317.02 721.57 348.01 720.98 C 358.68 720.65 369.36 721.21 380.01 720.50 C 396.32 719.53 412.70 717.37 429.04 719.18 C 454.00 720.36 479.02 717.04 503.20 710.97 C 539.21 701.91 573.41 687.00 606.72 670.84 C 640.13 654.53 673.10 637.07 708.04 624.19 C 694.27 625.33 680.89 629.26 668.00 634.09 M 684.73 651.80 C 590.04 699.61 487.16 732.14 381.50 743.23 C 352.11 746.34 322.58 748.47 293.02 748.31 C 266.50 748.16 239.84 746.20 213.95 740.21 C 197.63 736.28 181.46 730.81 167.18 721.83 C 161.07 717.78 154.83 713.49 150.08 707.88 C 149.93 698.39 150.29 688.89 149.94 679.40 C 148.31 680.52 145.78 681.00 145.16 683.13 C 143.51 688.67 144.66 694.49 145.39 700.08 C 145.86 702.93 145.61 706.09 147.50 708.50 C 160.13 728.47 181.99 740.90 204.60 746.19 C 231.18 752.90 258.81 752.89 286.04 752.62 C 418.31 751.06 550.96 724.44 671.56 669.48 C 700.25 656.19 728.74 642.09 754.91 624.24 C 729.24 626.20 707.15 640.55 684.73 651.80 M 384.98 690.88 C 357.24 690.18 329.50 690.59 301.76 690.53 C 308.26 692.91 315.23 693.61 322.08 694.35 C 348.04 696.35 374.08 695.12 400.07 694.34 C 415.85 693.71 431.65 693.89 447.43 694.01 C 443.14 691.54 438.18 690.63 433.35 689.93 C 417.23 687.85 401.12 691.72 384.98 690.88 Z" />
<path fill="#0d0d0d" stroke="#0d0d0d" stroke-width="0.09375" opacity="1.00" d=" M 452.91 159.92 C 473.78 156.48 494.85 154.08 516.02 153.81 C 559.70 153.07 603.90 160.30 644.02 177.98 C 675.04 191.66 703.36 211.74 725.73 237.28 C 727.77 239.73 729.81 242.21 731.28 245.05 C 705.10 222.22 676.55 201.78 644.99 187.02 C 608.72 169.70 568.71 160.64 528.58 159.54 C 507.51 159.12 486.19 159.64 465.57 164.42 C 449.18 168.01 433.00 172.85 416.25 174.57 C 365.83 178.81 315.27 173.54 265.23 167.43 C 260.13 166.91 255.07 165.96 249.94 165.87 C 247.75 165.73 245.98 167.20 244.22 168.26 C 237.78 172.48 231.94 178.20 224.15 179.79 C 228.36 171.89 236.03 166.21 244.30 163.09 C 251.20 160.48 258.71 160.20 266.01 160.26 C 288.69 160.65 310.48 168.29 333.10 169.32 C 373.27 171.77 413.30 165.90 452.91 159.92 Z" />
<path fill="#0d0d0d" stroke="#0d0d0d" stroke-width="0.09375" opacity="1.00" d=" M 512.04 184.55 C 556.17 180.83 601.71 184.41 643.14 200.91 C 657.35 206.56 671.00 214.26 681.96 225.04 C 688.89 232.11 694.84 240.63 697.13 250.38 C 694.86 247.76 693.21 244.69 691.07 241.97 C 681.15 228.96 667.64 219.05 653.08 211.78 C 635.17 202.71 615.58 197.59 595.95 193.82 C 560.90 187.17 525.04 186.66 489.51 188.18 C 496.69 185.42 504.49 185.36 512.04 184.55 Z" />
<path fill="#0d0d0d" stroke="#0d0d0d" stroke-width="0.09375" opacity="1.00" d=" M 274.71 196.52 C 297.48 192.40 320.96 192.64 343.76 196.50 C 349.01 197.35 354.19 198.61 359.46 199.39 C 364.13 200.18 369.16 201.09 372.79 204.38 C 374.14 206.91 371.97 209.51 371.14 211.84 C 340.83 199.96 307.29 195.74 275.12 201.34 C 256.64 204.89 237.94 212.93 226.22 228.23 C 220.93 234.69 218.76 242.88 215.10 250.22 C 215.66 238.86 219.88 228.03 224.94 217.97 C 227.78 213.77 232.33 211.12 236.64 208.64 C 248.53 202.50 261.60 198.97 274.71 196.52 Z" />
<path fill="#0d0d0d" stroke="#0d0d0d" stroke-width="0.09375" opacity="1.00" d=" M 500.82 195.79 C 503.87 193.06 507.89 195.55 510.86 197.10 C 500.38 203.50 491.90 213.37 487.94 225.07 C 486.91 232.01 488.50 239.31 485.98 246.03 C 481.03 237.54 481.85 227.15 482.87 217.76 C 489.37 210.87 493.61 202.03 500.82 195.79 Z" />
<path fill="#0d0d0d" stroke="#0d0d0d" stroke-width="0.09375" opacity="1.00" d=" M 347.30 222.90 C 349.98 222.39 352.97 220.39 355.59 221.27 C 358.37 226.67 361.61 231.83 365.56 236.47 C 365.92 250.30 365.81 264.20 365.56 278.05 C 362.22 274.99 360.22 270.61 360.25 266.07 C 359.75 257.40 363.65 248.57 360.87 240.06 C 356.84 233.97 350.52 229.59 347.30 222.90 Z" />
<path fill="#0d0d0d" stroke="#0d0d0d" stroke-width="0.09375" opacity="1.00" d=" M 552.11 248.25 C 577.58 243.58 604.05 242.80 629.44 248.38 C 642.10 251.28 654.63 255.49 665.82 262.17 C 681.69 271.81 694.74 287.34 698.41 305.85 C 692.82 310.21 686.33 314.13 679.03 314.22 C 662.87 314.82 647.94 307.21 632.01 305.90 C 598.25 302.97 564.27 310.28 533.13 323.09 C 522.50 327.40 512.24 332.56 502.10 337.91 C 494.02 330.01 482.76 326.30 475.09 317.93 C 470.05 312.38 467.08 303.91 470.79 296.85 C 477.14 284.45 488.01 274.96 499.67 267.64 C 515.64 257.76 533.82 252.05 552.11 248.25 M 509.12 286.09 C 500.99 291.46 494.80 300.80 495.93 310.86 C 501.46 313.04 507.65 313.07 513.32 311.38 C 526.02 307.78 536.00 298.31 548.54 294.33 C 556.22 291.62 564.46 290.88 572.56 291.48 C 570.89 281.99 564.93 273.20 566.78 263.24 C 547.15 269.65 526.55 274.55 509.12 286.09 M 645.99 281.57 C 646.28 284.88 646.83 289.90 651.02 290.31 C 658.63 291.21 666.68 291.65 673.16 296.28 C 673.15 293.42 673.54 289.95 671.07 287.91 C 664.54 281.46 654.69 280.29 645.99 281.57 Z" />
<path fill="#fcfcfc" stroke="#fcfcfc" stroke-width="0.09375" opacity="1.00" d=" M 509.12 286.09 C 526.55 274.55 547.15 269.65 566.78 263.24 C 564.93 273.20 570.89 281.99 572.56 291.48 C 564.46 290.88 556.22 291.62 548.54 294.33 C 536.00 298.31 526.02 307.78 513.32 311.38 C 507.65 313.07 501.46 313.04 495.93 310.86 C 494.80 300.80 500.99 291.46 509.12 286.09 Z" />
<path fill="#0d0d0d" stroke="#0d0d0d" stroke-width="0.09375" opacity="1.00" d=" M 242.06 274.09 C 249.14 270.21 257.14 268.55 265.05 267.42 C 281.99 265.18 299.26 267.01 315.75 271.25 C 328.51 274.44 340.94 279.13 352.45 285.52 C 361.45 290.49 369.53 297.27 375.29 305.85 C 385.52 302.81 397.02 298.81 407.22 304.17 C 407.52 308.29 407.37 313.12 404.20 316.19 C 396.17 324.33 382.68 323.37 375.26 332.35 C 374.58 347.07 375.65 361.92 374.76 376.65 C 364.87 387.42 349.63 390.99 339.47 401.45 C 336.28 404.65 333.94 408.64 332.58 412.94 C 341.34 428.22 351.55 443.91 367.42 452.58 C 370.92 454.20 374.63 456.76 378.67 455.77 C 385.05 454.31 389.36 448.87 395.17 446.24 C 398.01 447.08 400.30 449.14 402.92 450.49 C 399.47 460.32 394.37 470.53 385.18 476.13 C 379.08 479.83 371.38 477.79 365.69 474.28 C 345.87 462.07 334.49 440.30 314.97 427.73 C 310.83 431.93 306.64 437.41 300.10 437.27 C 296.78 432.87 295.57 427.41 292.95 422.65 C 279.39 426.27 268.71 436.18 255.49 440.61 C 250.69 442.17 245.51 442.92 240.50 442.00 C 245.12 439.24 250.31 437.62 255.03 435.04 C 292.43 416.17 323.31 387.37 356.25 362.02 C 356.23 351.34 356.29 340.66 356.23 329.97 C 356.53 328.41 354.64 327.96 353.68 327.27 C 342.42 321.21 329.82 318.19 317.23 316.41 C 300.86 314.13 284.34 313.13 267.89 311.61 C 251.77 309.99 235.41 307.63 220.49 301.01 C 223.08 289.32 231.60 279.59 242.06 274.09 M 252.07 287.42 C 256.35 292.12 263.00 293.23 269.07 292.70 C 278.08 291.93 287.11 291.23 296.17 291.33 C 293.13 287.41 287.85 285.76 283.04 285.87 C 272.70 286.01 262.43 287.86 252.07 287.42 Z" />
<path fill="#fcfcfc" stroke="#fcfcfc" stroke-width="0.09375" opacity="1.00" d=" M 645.99 281.57 C 654.69 280.29 664.54 281.46 671.07 287.91 C 673.54 289.95 673.15 293.42 673.16 296.28 C 666.68 291.65 658.63 291.21 651.02 290.31 C 646.83 289.90 646.28 284.88 645.99 281.57 Z" />
<path fill="#fcfcfc" stroke="#fcfcfc" stroke-width="0.09375" opacity="1.00" d=" M 252.07 287.42 C 262.43 287.86 272.70 286.01 283.04 285.87 C 287.85 285.76 293.13 287.41 296.17 291.33 C 287.11 291.23 278.08 291.93 269.07 292.70 C 263.00 293.23 256.35 292.12 252.07 287.42 Z" />
<path fill="#0d0d0d" stroke="#0d0d0d" stroke-width="0.09375" opacity="1.00" d=" M 707.78 286.96 C 722.52 285.29 735.98 295.08 750.80 292.42 C 749.60 298.43 744.82 303.22 739.05 305.01 C 731.65 307.38 722.59 306.62 716.72 301.15 C 723.43 300.38 731.97 302.99 736.76 296.73 C 726.69 295.36 715.35 294.66 707.78 286.96 Z" />
<path fill="#0d0d0d" stroke="#0d0d0d" stroke-width="0.09375" opacity="1.00" d=" M 143.61 297.28 C 158.51 299.58 173.40 296.24 188.08 293.95 C 196.29 292.69 205.58 294.59 211.32 300.97 C 192.50 298.92 173.30 298.10 154.62 301.76 C 135.39 305.51 116.36 313.32 102.23 327.24 C 91.91 337.20 84.76 350.40 82.35 364.57 C 79.56 380.62 82.19 397.16 87.37 412.46 C 88.54 415.95 89.86 419.75 93.08 421.89 C 105.69 431.17 122.73 431.18 135.13 440.81 C 138.39 443.29 137.44 447.83 137.29 451.36 C 131.11 447.67 125.46 442.98 118.63 440.48 C 106.99 435.56 93.44 433.08 84.50 423.50 C 75.37 403.72 72.68 380.87 77.44 359.57 C 83.68 331.01 105.93 307.31 132.98 297.01 C 136.42 295.61 140.11 296.91 143.61 297.28 Z" />
<path fill="#0d0d0d" stroke="#0d0d0d" stroke-width="0.09375" opacity="1.00" d=" M 788.69 299.46 C 794.82 297.06 801.52 296.94 808.02 296.75 C 819.98 296.84 832.04 296.18 843.88 298.33 C 860.37 301.07 876.89 308.09 887.89 321.07 C 898.86 334.14 903.53 351.30 904.86 368.03 C 906.07 379.90 904.81 391.82 904.08 403.68 C 902.82 402.49 901.64 401.24 900.48 399.98 C 902.02 382.74 901.90 365.33 899.90 348.15 C 894.29 333.30 883.81 319.98 870.05 311.87 C 858.18 305.14 844.46 302.61 831.00 301.61 C 816.91 300.53 802.73 301.06 788.69 299.46 Z" />
<path fill="#0d0d0d" stroke="#0d0d0d" stroke-width="0.09375" opacity="1.00" d=" M 706.95 310.25 C 713.58 308.08 720.37 312.34 723.24 318.27 C 717.99 318.45 712.96 316.29 708.96 313.01 C 707.97 312.35 707.32 311.35 706.95 310.25 Z" />
<path fill="#0d0d0d" stroke="#0d0d0d" stroke-width="0.09375" opacity="1.00" d=" M 744.03 323.04 C 758.54 315.91 774.94 313.38 791.00 314.00 C 808.99 314.73 826.98 319.93 841.95 330.08 C 855.76 339.23 866.86 352.58 872.82 368.08 C 879.38 385.06 878.96 404.73 871.24 421.26 C 865.95 432.76 857.81 442.85 848.12 450.94 C 844.23 442.42 845.88 432.65 849.17 424.23 C 852.34 415.29 857.23 406.74 857.91 397.10 C 858.92 384.30 854.94 371.50 848.41 360.59 C 840.24 347.30 826.01 338.60 810.99 335.20 C 798.81 332.35 786.05 332.42 773.69 333.70 C 764.45 342.09 753.55 348.52 741.89 352.94 C 720.30 361.29 697.11 365.22 674.00 365.35 C 656.91 365.20 639.42 363.35 623.67 356.29 C 613.90 351.87 604.83 344.91 599.75 335.29 C 596.58 329.02 595.49 321.94 595.20 314.99 C 611.04 317.17 622.41 329.37 635.02 337.96 C 651.70 349.90 673.84 351.01 693.24 346.37 C 711.64 342.15 727.18 330.97 744.03 323.04 Z" />
<path fill="#0d0d0d" stroke="#0d0d0d" stroke-width="0.09375" opacity="1.00" d=" M 110.00 336.95 C 120.43 328.99 132.96 324.51 145.25 320.34 C 139.25 333.02 122.40 332.79 114.51 343.54 C 111.53 347.72 110.86 353.01 110.49 358.00 C 109.82 368.58 112.11 379.60 108.30 389.79 C 106.65 387.45 103.97 385.23 104.50 382.05 C 104.94 368.00 106.97 354.06 107.78 340.03 C 107.63 338.55 109.05 337.77 110.00 336.95 Z" />
<path fill="#0d0d0d" stroke="#0d0d0d" stroke-width="0.09375" opacity="1.00" d=" M 143.08 343.15 C 154.96 336.88 169.00 336.48 182.00 338.68 C 204.56 342.76 227.02 351.36 244.22 366.91 C 251.23 363.23 257.02 357.50 264.39 354.49 C 268.74 352.80 273.25 354.97 276.89 357.30 C 276.58 366.26 272.89 376.36 264.03 380.05 C 247.44 387.43 228.86 384.52 211.27 384.95 C 210.61 377.24 208.00 369.23 202.02 364.00 C 196.88 359.41 189.64 358.76 183.07 358.32 C 163.78 357.66 145.61 365.74 126.52 367.03 C 128.66 357.39 134.13 347.89 143.08 343.15 Z" />
<path fill="#0d0d0d" stroke="#0d0d0d" stroke-width="0.09375" opacity="1.00" d=" M 775.77 350.79 C 778.41 347.23 783.31 347.45 787.26 346.96 C 787.76 357.39 789.20 368.57 796.16 376.86 C 808.19 391.98 828.49 396.53 841.58 410.43 C 842.82 411.68 843.84 413.13 844.75 414.64 C 840.05 418.47 833.86 419.81 827.92 418.99 C 820.86 418.31 814.07 415.91 806.97 415.65 C 804.52 415.56 802.54 417.40 801.35 419.37 C 797.52 426.29 792.70 433.63 794.33 441.96 C 794.40 445.36 797.29 448.47 796.29 451.82 C 770.62 475.19 754.64 506.58 734.10 534.12 C 721.90 550.96 708.06 566.69 692.27 580.26 C 681.54 589.37 670.07 597.56 658.42 605.44 C 628.62 625.32 596.43 641.72 562.57 653.49 C 537.61 661.92 511.50 666.33 485.38 669.23 C 437.80 674.48 389.82 675.78 342.00 673.98 C 318.60 673.09 295.23 671.21 272.02 668.10 C 252.02 665.33 232.07 661.49 212.90 655.03 C 202.24 651.35 191.39 646.82 183.37 638.62 C 173.68 628.47 167.01 615.83 162.11 602.77 C 155.15 584.16 151.40 564.51 149.00 544.84 C 145.47 514.74 146.14 484.17 150.53 454.19 C 153.67 434.84 163.31 417.45 172.46 400.40 C 176.59 392.99 174.01 383.97 177.35 376.35 C 179.75 373.01 184.44 375.03 187.85 375.03 C 195.70 392.21 191.42 411.76 196.56 429.57 C 197.13 431.97 199.31 433.40 200.95 435.05 C 220.72 453.37 245.11 466.14 270.66 474.32 C 310.04 487.03 352.00 489.12 393.05 486.73 C 441.83 483.61 489.94 473.73 537.00 460.82 C 618.23 438.31 696.71 406.76 772.90 370.90 C 772.94 364.18 771.73 356.68 775.77 350.79 M 739.66 408.68 C 724.60 417.14 710.07 426.85 693.67 432.62 C 692.19 444.92 697.54 457.73 692.23 469.59 C 717.29 466.12 742.97 458.43 762.09 441.12 C 775.09 429.43 782.98 412.07 782.49 394.52 C 767.18 395.00 752.84 401.33 739.66 408.68 M 173.58 456.04 C 173.79 457.51 175.26 458.34 176.06 459.51 C 180.08 454.45 181.91 448.06 182.90 441.77 C 178.73 445.71 175.84 450.82 173.58 456.04 M 558.28 474.75 C 561.83 488.38 563.68 502.38 567.13 516.03 C 594.28 503.31 625.60 501.42 651.34 485.38 C 666.22 476.46 674.68 459.11 674.90 442.04 C 635.41 450.66 597.35 464.55 558.28 474.75 M 184.67 504.03 C 184.30 511.67 189.96 518.48 196.82 521.20 C 202.15 501.75 207.16 480.95 201.85 460.93 C 192.87 473.60 184.93 488.12 184.67 504.03 M 708.37 492.38 C 699.48 498.15 691.44 506.58 689.36 517.31 C 687.81 525.09 690.58 532.77 693.51 539.85 C 705.97 536.53 715.04 526.24 721.90 515.85 C 730.21 503.14 737.28 489.34 748.66 478.98 C 734.38 479.85 720.38 484.64 708.37 492.38 M 220.57 497.01 C 219.95 508.19 223.66 518.93 225.17 529.89 C 234.41 528.11 242.90 532.76 251.37 535.60 C 249.81 530.90 246.99 525.91 248.90 520.87 C 251.94 511.97 258.82 504.07 258.03 494.14 C 247.45 491.34 236.78 487.38 228.81 479.57 C 223.66 483.84 220.87 490.40 220.57 497.01 M 449.62 501.85 C 448.17 502.17 446.79 502.76 445.42 503.32 C 445.04 515.51 445.50 527.69 445.35 539.89 C 459.35 541.26 473.56 541.06 487.45 538.67 C 507.80 535.24 527.38 528.05 547.95 525.82 C 544.33 512.05 542.75 497.82 538.80 484.13 C 508.79 488.48 479.20 495.27 449.62 501.85 M 280.16 498.34 C 272.73 507.98 277.28 522.08 268.82 531.25 C 292.07 540.84 317.77 540.01 342.44 539.99 C 343.27 530.20 338.09 519.19 344.82 510.52 C 323.94 503.01 300.13 509.21 280.16 498.34 M 366.57 508.04 C 366.95 519.12 358.23 528.59 360.46 539.84 C 382.52 540.35 404.60 540.18 426.66 539.92 C 426.56 527.39 426.69 514.86 426.60 502.33 C 406.42 502.55 386.87 510.50 366.57 508.04 M 607.53 540.53 C 597.38 544.36 586.87 547.08 576.50 550.16 C 575.70 558.45 575.76 567.08 579.09 574.87 C 584.53 588.13 595.12 599.55 595.87 614.48 C 627.67 600.30 653.55 576.25 683.48 558.86 C 680.23 555.29 676.98 551.63 674.78 547.29 C 669.11 536.83 668.02 524.47 669.68 512.84 C 649.35 522.88 628.94 532.94 607.53 540.53 M 464.17 582.51 C 460.79 602.77 468.60 623.06 465.16 643.35 C 478.07 646.78 491.60 646.35 504.62 643.79 C 529.16 639.42 552.34 629.85 576.50 623.97 C 575.06 609.27 565.50 597.33 559.82 584.14 C 556.05 574.86 556.47 564.62 557.02 554.82 C 526.83 566.27 496.46 578.56 464.17 582.51 M 177.11 574.29 C 176.43 578.67 176.46 583.35 178.68 587.33 C 183.80 597.68 190.02 607.58 193.20 618.78 C 195.80 613.75 196.26 607.48 193.52 602.41 C 188.76 592.63 182.16 583.91 177.11 574.29 M 214.25 586.84 C 212.34 590.70 212.07 595.22 213.77 599.21 C 216.16 605.99 221.64 612.69 219.38 620.26 C 217.29 623.69 212.72 624.35 209.07 625.07 C 207.06 624.02 205.58 622.18 203.75 620.85 C 204.68 623.93 206.11 627.32 209.32 628.61 C 220.03 633.69 231.92 635.17 243.33 637.92 C 238.13 621.77 231.69 605.51 220.49 592.50 C 218.57 590.45 216.90 587.98 214.25 586.84 M 370.63 596.82 C 373.02 615.34 377.53 633.52 379.89 652.05 C 402.93 651.60 426.76 655.50 449.10 648.08 C 440.93 628.73 446.57 607.56 445.49 587.35 C 421.32 594.67 395.92 598.91 370.63 596.82 M 248.50 595.99 C 251.78 608.43 262.72 617.35 265.62 629.98 C 265.76 633.16 264.50 636.20 263.42 639.14 C 272.55 645.72 284.39 646.11 295.18 647.49 C 292.11 631.89 280.46 618.80 280.77 602.39 C 269.41 603.79 259.75 595.64 248.50 595.99 M 300.16 601.21 C 305.23 617.27 315.25 631.37 319.18 647.85 C 332.49 652.35 346.74 653.15 360.68 652.54 C 359.41 641.58 358.18 630.39 353.85 620.14 C 350.35 611.96 344.28 604.38 335.75 601.20 C 324.37 596.73 311.74 598.49 300.16 601.21 Z" />
<path fill="#0d0d0d" stroke="#0d0d0d" stroke-width="0.09375" opacity="1.00" d=" M 478.08 399.83 C 478.71 389.09 490.39 383.33 500.06 384.18 C 512.80 385.40 526.18 388.31 536.16 396.85 C 539.37 399.14 539.56 403.42 540.07 406.98 C 540.60 418.24 540.32 430.01 535.50 440.42 C 532.69 446.60 527.58 452.14 520.86 453.92 C 515.89 455.01 511.06 452.83 506.36 451.53 C 506.19 447.79 505.56 443.78 507.34 440.31 C 510.59 433.84 518.46 431.14 521.20 424.31 C 523.37 419.13 521.64 413.53 520.61 408.31 C 506.95 403.05 491.39 406.29 478.08 399.83 Z" />
<path fill="#0d0d0d" stroke="#0d0d0d" stroke-width="0.09375" opacity="1.00" d=" M 547.04 386.12 C 549.15 386.56 551.28 387.03 553.24 387.97 C 551.40 389.41 549.59 390.89 547.64 392.19 C 547.94 397.33 551.99 401.81 556.99 402.88 C 575.78 407.54 595.18 401.49 614.12 404.67 C 618.36 404.65 620.29 409.00 619.67 412.71 C 615.61 411.02 611.52 409.24 607.14 408.60 C 590.37 405.83 573.39 411.68 556.67 408.23 C 551.72 407.18 546.51 404.40 544.84 399.31 C 543.19 395.00 542.28 388.80 547.04 386.12 Z" />
<path fill="#0d0d0d" stroke="#0d0d0d" stroke-width="0.09375" opacity="1.00" d=" M 104.94 389.86 C 109.58 391.52 111.02 396.50 114.23 399.75 C 120.46 406.65 128.78 411.21 135.04 418.07 C 127.72 417.40 119.90 415.88 114.31 410.73 C 108.34 405.49 106.13 397.42 104.94 389.86 Z" />
<path fill="#fcfcfc" stroke="#fcfcfc" stroke-width="0.09375" opacity="1.00" d=" M 739.66 408.68 C 752.84 401.33 767.18 395.00 782.49 394.52 C 782.98 412.07 775.09 429.43 762.09 441.12 C 742.97 458.43 717.29 466.12 692.23 469.59 C 697.54 457.73 692.19 444.92 693.67 432.62 C 710.07 426.85 724.60 417.14 739.66 408.68 Z" />
<path fill="#0d0d0d" stroke="#0d0d0d" stroke-width="0.09375" opacity="1.00" d=" M 900.12 401.94 C 901.37 403.54 902.52 405.21 903.67 406.90 C 901.27 421.64 899.02 436.52 894.89 450.88 C 882.48 458.79 870.44 468.32 855.78 471.60 C 852.38 472.53 848.91 471.49 845.61 470.65 C 846.95 469.94 848.38 469.43 849.88 469.15 C 860.52 466.91 870.99 462.50 878.98 454.95 C 892.96 441.09 898.55 421.08 900.12 401.94 Z" />
<path fill="#0d0d0d" stroke="#0d0d0d" stroke-width="0.09375" opacity="1.00" d=" M 442.42 420.45 C 460.28 415.40 479.48 417.35 496.96 422.98 C 497.57 430.76 496.73 438.87 492.84 445.76 C 489.58 443.38 486.21 440.99 482.29 439.85 C 463.95 434.31 444.14 445.66 426.30 437.16 C 427.58 428.87 434.56 422.56 442.42 420.45 Z" />
<path fill="#fcfcfc" stroke="#fcfcfc" stroke-width="0.09375" opacity="1.00" d=" M 173.58 456.04 C 175.84 450.82 178.73 445.71 182.90 441.77 C 181.91 448.06 180.08 454.45 176.06 459.51 C 175.26 458.34 173.79 457.51 173.58 456.04 Z" />
<path fill="#fcfcfc" stroke="#fcfcfc" stroke-width="0.09375" opacity="1.00" d=" M 558.28 474.75 C 597.35 464.55 635.41 450.66 674.90 442.04 C 674.68 459.11 666.22 476.46 651.34 485.38 C 625.60 501.42 594.28 503.31 567.13 516.03 C 563.68 502.38 561.83 488.38 558.28 474.75 Z" />
<path fill="#fcfcfc" stroke="#fcfcfc" stroke-width="0.09375" opacity="1.00" d=" M 184.67 504.03 C 184.93 488.12 192.87 473.60 201.85 460.93 C 207.16 480.95 202.15 501.75 196.82 521.20 C 189.96 518.48 184.30 511.67 184.67 504.03 Z" />
<path fill="#fcfcfc" stroke="#fcfcfc" stroke-width="0.09375" opacity="1.00" d=" M 708.37 492.38 C 720.38 484.64 734.38 479.85 748.66 478.98 C 737.28 489.34 730.21 503.14 721.90 515.85 C 715.04 526.24 705.97 536.53 693.51 539.85 C 690.58 532.77 687.81 525.09 689.36 517.31 C 691.44 506.58 699.48 498.15 708.37 492.38 Z" />
<path fill="#fcfcfc" stroke="#fcfcfc" stroke-width="0.09375" opacity="1.00" d=" M 220.57 497.01 C 220.87 490.40 223.66 483.84 228.81 479.57 C 236.78 487.38 247.45 491.34 258.03 494.14 C 258.82 504.07 251.94 511.97 248.90 520.87 C 246.99 525.91 249.81 530.90 251.37 535.60 C 242.90 532.76 234.41 528.11 225.17 529.89 C 223.66 518.93 219.95 508.19 220.57 497.01 Z" />
<path fill="#fcfcfc" stroke="#fcfcfc" stroke-width="0.09375" opacity="1.00" d=" M 449.62 501.85 C 479.20 495.27 508.79 488.48 538.80 484.13 C 542.75 497.82 544.33 512.05 547.95 525.82 C 527.38 528.05 507.80 535.24 487.45 538.67 C 473.56 541.06 459.35 541.26 445.35 539.89 C 445.50 527.69 445.04 515.51 445.42 503.32 C 446.79 502.76 448.17 502.17 449.62 501.85 Z" />
<path fill="#fcfcfc" stroke="#fcfcfc" stroke-width="0.09375" opacity="1.00" d=" M 280.16 498.34 C 300.13 509.21 323.94 503.01 344.82 510.52 C 338.09 519.19 343.27 530.20 342.44 539.99 C 317.77 540.01 292.07 540.84 268.82 531.25 C 277.28 522.08 272.73 507.98 280.16 498.34 Z" />
<path fill="#fcfcfc" stroke="#fcfcfc" stroke-width="0.09375" opacity="1.00" d=" M 366.57 508.04 C 386.87 510.50 406.42 502.55 426.60 502.33 C 426.69 514.86 426.56 527.39 426.66 539.92 C 404.60 540.18 382.52 540.35 360.46 539.84 C 358.23 528.59 366.95 519.12 366.57 508.04 Z" />
<path fill="#fcfcfc" stroke="#fcfcfc" stroke-width="0.09375" opacity="1.00" d=" M 607.53 540.53 C 628.94 532.94 649.35 522.88 669.68 512.84 C 668.02 524.47 669.11 536.83 674.78 547.29 C 676.98 551.63 680.23 555.29 683.48 558.86 C 653.55 576.25 627.67 600.30 595.87 614.48 C 595.12 599.55 584.53 588.13 579.09 574.87 C 575.76 567.08 575.70 558.45 576.50 550.16 C 586.87 547.08 597.38 544.36 607.53 540.53 Z" />
<path fill="#fcfcfc" stroke="#fcfcfc" stroke-width="0.09375" opacity="1.00" d=" M 464.17 582.51 C 496.46 578.56 526.83 566.27 557.02 554.82 C 556.47 564.62 556.05 574.86 559.82 584.14 C 565.50 597.33 575.06 609.27 576.50 623.97 C 552.34 629.85 529.16 639.42 504.62 643.79 C 491.60 646.35 478.07 646.78 465.16 643.35 C 468.60 623.06 460.79 602.77 464.17 582.51 Z" />
<path fill="#fcfcfc" stroke="#fcfcfc" stroke-width="0.09375" opacity="1.00" d=" M 177.11 574.29 C 182.16 583.91 188.76 592.63 193.52 602.41 C 196.26 607.48 195.80 613.75 193.20 618.78 C 190.02 607.58 183.80 597.68 178.68 587.33 C 176.46 583.35 176.43 578.67 177.11 574.29 Z" />
<path fill="#fcfcfc" stroke="#fcfcfc" stroke-width="0.09375" opacity="1.00" d=" M 214.25 586.84 C 216.90 587.98 218.57 590.45 220.49 592.50 C 231.69 605.51 238.13 621.77 243.33 637.92 C 231.92 635.17 220.03 633.69 209.32 628.61 C 206.11 627.32 204.68 623.93 203.75 620.85 C 205.58 622.18 207.06 624.02 209.07 625.07 C 212.72 624.35 217.29 623.69 219.38 620.26 C 221.64 612.69 216.16 605.99 213.77 599.21 C 212.07 595.22 212.34 590.70 214.25 586.84 Z" />
<path fill="#fcfcfc" stroke="#fcfcfc" stroke-width="0.09375" opacity="1.00" d=" M 370.63 596.82 C 395.92 598.91 421.32 594.67 445.49 587.35 C 446.57 607.56 440.93 628.73 449.10 648.08 C 426.76 655.50 402.93 651.60 379.89 652.05 C 377.53 633.52 373.02 615.34 370.63 596.82 Z" />
<path fill="#fcfcfc" stroke="#fcfcfc" stroke-width="0.09375" opacity="1.00" d=" M 248.50 595.99 C 259.75 595.64 269.41 603.79 280.77 602.39 C 280.46 618.80 292.11 631.89 295.18 647.49 C 284.39 646.11 272.55 645.72 263.42 639.14 C 264.50 636.20 265.76 633.16 265.62 629.98 C 262.72 617.35 251.78 608.43 248.50 595.99 Z" />
<path fill="#fcfcfc" stroke="#fcfcfc" stroke-width="0.09375" opacity="1.00" d=" M 300.16 601.21 C 311.74 598.49 324.37 596.73 335.75 601.20 C 344.28 604.38 350.35 611.96 353.85 620.14 C 358.18 630.39 359.41 641.58 360.68 652.54 C 346.74 653.15 332.49 652.35 319.18 647.85 C 315.25 631.37 305.23 617.27 300.16 601.21 Z" />
<path fill="#0d0d0d" stroke="#0d0d0d" stroke-width="0.09375" opacity="1.00" d=" M 668.00 634.09 C 680.89 629.26 694.27 625.33 708.04 624.19 C 673.10 637.07 640.13 654.53 606.72 670.84 C 573.41 687.00 539.21 701.91 503.20 710.97 C 479.02 717.04 454.00 720.36 429.04 719.18 C 412.70 717.37 396.32 719.53 380.01 720.50 C 369.36 721.21 358.68 720.65 348.01 720.98 C 317.02 721.57 285.80 723.75 255.00 719.09 C 239.73 716.81 224.22 712.63 211.55 703.48 C 201.12 696.00 193.77 684.34 191.90 671.61 C 194.33 674.38 196.22 677.57 198.68 680.33 C 208.21 691.39 220.98 699.20 234.41 704.64 C 251.07 711.44 268.90 714.70 286.65 717.15 C 302.34 719.24 318.17 720.31 334.00 720.13 C 346.69 720.33 359.31 718.72 371.98 718.48 C 414.09 716.98 456.74 716.47 497.83 706.04 C 534.81 696.65 569.49 680.31 603.64 663.63 C 624.86 653.30 645.93 642.52 668.00 634.09 Z" />
<path fill="#0d0d0d" stroke="#0d0d0d" stroke-width="0.09375" opacity="1.00" d=" M 684.73 651.80 C 707.15 640.55 729.24 626.20 754.91 624.24 C 728.74 642.09 700.25 656.19 671.56 669.48 C 550.96 724.44 418.31 751.06 286.04 752.62 C 258.81 752.89 231.18 752.90 204.60 746.19 C 181.99 740.90 160.13 728.47 147.50 708.50 C 145.61 706.09 145.86 702.93 145.39 700.08 C 144.66 694.49 143.51 688.67 145.16 683.13 C 145.78 681.00 148.31 680.52 149.94 679.40 C 150.29 688.89 149.93 698.39 150.08 707.88 C 154.83 713.49 161.07 717.78 167.18 721.83 C 181.46 730.81 197.63 736.28 213.95 740.21 C 239.84 746.20 266.50 748.16 293.02 748.31 C 322.58 748.47 352.11 746.34 381.50 743.23 C 487.16 732.14 590.04 699.61 684.73 651.80 Z" />
<path fill="#0d0d0d" stroke="#0d0d0d" stroke-width="0.09375" opacity="1.00" d=" M 384.98 690.88 C 401.12 691.72 417.23 687.85 433.35 689.93 C 438.18 690.63 443.14 691.54 447.43 694.01 C 431.65 693.89 415.85 693.71 400.07 694.34 C 374.08 695.12 348.04 696.35 322.08 694.35 C 315.23 693.61 308.26 692.91 301.76 690.53 C 329.50 690.59 357.24 690.18 384.98 690.88 Z" />
</svg>
